<mxfile host="app.diagrams.net" modified="2024-03-06T11:58:11.662Z" agent="Mozilla/5.0 (X11; Linux x86_64; rv:109.0) Gecko/20100101 Firefox/115.0" etag="6armDTqgWCVnzz9UFeHx" version="23.1.8" type="device">
  <diagram name="Page-1" id="sIVYXBJkjFY2A6ysjHX-">
    <mxGraphModel dx="2206" dy="1222" grid="1" gridSize="10" guides="1" tooltips="1" connect="1" arrows="1" fold="1" page="1" pageScale="1" pageWidth="1169" pageHeight="827" math="0" shadow="0">
      <root>
        <mxCell id="0" />
        <mxCell id="1" parent="0" />
        <mxCell id="NMwNA50rnmMx-DE3LajB-3" style="edgeStyle=orthogonalEdgeStyle;rounded=0;orthogonalLoop=1;jettySize=auto;html=1;exitX=0.5;exitY=1;exitDx=0;exitDy=0;entryX=0.5;entryY=0;entryDx=0;entryDy=0;" edge="1" parent="1" source="NMwNA50rnmMx-DE3LajB-1" target="NMwNA50rnmMx-DE3LajB-2">
          <mxGeometry relative="1" as="geometry" />
        </mxCell>
        <mxCell id="NMwNA50rnmMx-DE3LajB-1" value="Renderer" style="rounded=0;whiteSpace=wrap;html=1;" vertex="1" parent="1">
          <mxGeometry x="510" y="50" width="120" height="60" as="geometry" />
        </mxCell>
        <mxCell id="NMwNA50rnmMx-DE3LajB-7" style="rounded=0;orthogonalLoop=1;jettySize=auto;html=1;exitX=0.25;exitY=1;exitDx=0;exitDy=0;entryX=0.5;entryY=0;entryDx=0;entryDy=0;" edge="1" parent="1" source="NMwNA50rnmMx-DE3LajB-2" target="NMwNA50rnmMx-DE3LajB-4">
          <mxGeometry relative="1" as="geometry" />
        </mxCell>
        <mxCell id="NMwNA50rnmMx-DE3LajB-8" style="edgeStyle=none;rounded=0;orthogonalLoop=1;jettySize=auto;html=1;exitX=0.5;exitY=1;exitDx=0;exitDy=0;entryX=0.5;entryY=0;entryDx=0;entryDy=0;strokeColor=default;align=center;verticalAlign=middle;fontFamily=Helvetica;fontSize=11;fontColor=default;labelBackgroundColor=default;endArrow=classic;" edge="1" parent="1" source="NMwNA50rnmMx-DE3LajB-2" target="NMwNA50rnmMx-DE3LajB-5">
          <mxGeometry relative="1" as="geometry" />
        </mxCell>
        <mxCell id="NMwNA50rnmMx-DE3LajB-9" style="edgeStyle=none;rounded=0;orthogonalLoop=1;jettySize=auto;html=1;exitX=0.75;exitY=1;exitDx=0;exitDy=0;entryX=0.5;entryY=0;entryDx=0;entryDy=0;strokeColor=default;align=center;verticalAlign=middle;fontFamily=Helvetica;fontSize=11;fontColor=default;labelBackgroundColor=default;endArrow=classic;" edge="1" parent="1" source="NMwNA50rnmMx-DE3LajB-2" target="NMwNA50rnmMx-DE3LajB-6">
          <mxGeometry relative="1" as="geometry" />
        </mxCell>
        <mxCell id="NMwNA50rnmMx-DE3LajB-2" value="RenderPasses" style="rounded=0;whiteSpace=wrap;html=1;" vertex="1" parent="1">
          <mxGeometry x="510" y="170" width="120" height="60" as="geometry" />
        </mxCell>
        <mxCell id="NMwNA50rnmMx-DE3LajB-4" value="RenderPass1" style="rounded=0;whiteSpace=wrap;html=1;" vertex="1" parent="1">
          <mxGeometry x="330" y="290" width="120" height="60" as="geometry" />
        </mxCell>
        <mxCell id="NMwNA50rnmMx-DE3LajB-12" style="edgeStyle=none;rounded=0;orthogonalLoop=1;jettySize=auto;html=1;exitX=0.5;exitY=1;exitDx=0;exitDy=0;entryX=0.5;entryY=0;entryDx=0;entryDy=0;strokeColor=default;align=center;verticalAlign=middle;fontFamily=Helvetica;fontSize=11;fontColor=default;labelBackgroundColor=default;endArrow=classic;" edge="1" parent="1" source="NMwNA50rnmMx-DE3LajB-5" target="NMwNA50rnmMx-DE3LajB-11">
          <mxGeometry relative="1" as="geometry" />
        </mxCell>
        <mxCell id="NMwNA50rnmMx-DE3LajB-5" value="RenderPass2" style="rounded=0;whiteSpace=wrap;html=1;" vertex="1" parent="1">
          <mxGeometry x="510" y="390" width="120" height="60" as="geometry" />
        </mxCell>
        <mxCell id="NMwNA50rnmMx-DE3LajB-6" value="RenderPassN" style="rounded=0;whiteSpace=wrap;html=1;" vertex="1" parent="1">
          <mxGeometry x="690" y="290" width="120" height="60" as="geometry" />
        </mxCell>
        <mxCell id="NMwNA50rnmMx-DE3LajB-16" style="edgeStyle=none;rounded=0;orthogonalLoop=1;jettySize=auto;html=1;exitX=0.25;exitY=1;exitDx=0;exitDy=0;entryX=0.5;entryY=0;entryDx=0;entryDy=0;strokeColor=default;align=center;verticalAlign=middle;fontFamily=Helvetica;fontSize=11;fontColor=default;labelBackgroundColor=default;endArrow=classic;" edge="1" parent="1" source="NMwNA50rnmMx-DE3LajB-11" target="NMwNA50rnmMx-DE3LajB-13">
          <mxGeometry relative="1" as="geometry" />
        </mxCell>
        <mxCell id="NMwNA50rnmMx-DE3LajB-17" style="edgeStyle=none;rounded=0;orthogonalLoop=1;jettySize=auto;html=1;exitX=0.5;exitY=1;exitDx=0;exitDy=0;entryX=0.5;entryY=0;entryDx=0;entryDy=0;strokeColor=default;align=center;verticalAlign=middle;fontFamily=Helvetica;fontSize=11;fontColor=default;labelBackgroundColor=default;endArrow=classic;" edge="1" parent="1" source="NMwNA50rnmMx-DE3LajB-11" target="NMwNA50rnmMx-DE3LajB-14">
          <mxGeometry relative="1" as="geometry" />
        </mxCell>
        <mxCell id="NMwNA50rnmMx-DE3LajB-18" style="edgeStyle=none;rounded=0;orthogonalLoop=1;jettySize=auto;html=1;exitX=0.75;exitY=1;exitDx=0;exitDy=0;entryX=0.5;entryY=0;entryDx=0;entryDy=0;strokeColor=default;align=center;verticalAlign=middle;fontFamily=Helvetica;fontSize=11;fontColor=default;labelBackgroundColor=default;endArrow=classic;" edge="1" parent="1" source="NMwNA50rnmMx-DE3LajB-11" target="NMwNA50rnmMx-DE3LajB-15">
          <mxGeometry relative="1" as="geometry" />
        </mxCell>
        <mxCell id="NMwNA50rnmMx-DE3LajB-11" value="Shaders" style="rounded=0;whiteSpace=wrap;html=1;" vertex="1" parent="1">
          <mxGeometry x="510" y="510" width="120" height="60" as="geometry" />
        </mxCell>
        <mxCell id="NMwNA50rnmMx-DE3LajB-13" value="&lt;div&gt;Shader1&lt;/div&gt;" style="rounded=0;whiteSpace=wrap;html=1;" vertex="1" parent="1">
          <mxGeometry x="340" y="620" width="120" height="60" as="geometry" />
        </mxCell>
        <mxCell id="NMwNA50rnmMx-DE3LajB-20" style="edgeStyle=none;rounded=0;orthogonalLoop=1;jettySize=auto;html=1;exitX=0.75;exitY=1;exitDx=0;exitDy=0;entryX=0.5;entryY=0;entryDx=0;entryDy=0;strokeColor=default;align=center;verticalAlign=middle;fontFamily=Helvetica;fontSize=11;fontColor=default;labelBackgroundColor=default;endArrow=classic;" edge="1" parent="1" source="NMwNA50rnmMx-DE3LajB-14" target="NMwNA50rnmMx-DE3LajB-19">
          <mxGeometry relative="1" as="geometry" />
        </mxCell>
        <mxCell id="NMwNA50rnmMx-DE3LajB-23" style="edgeStyle=none;rounded=0;orthogonalLoop=1;jettySize=auto;html=1;exitX=0.25;exitY=1;exitDx=0;exitDy=0;entryX=0.5;entryY=0;entryDx=0;entryDy=0;strokeColor=default;align=center;verticalAlign=middle;fontFamily=Helvetica;fontSize=11;fontColor=default;labelBackgroundColor=default;endArrow=classic;" edge="1" parent="1" source="NMwNA50rnmMx-DE3LajB-14" target="NMwNA50rnmMx-DE3LajB-21">
          <mxGeometry relative="1" as="geometry" />
        </mxCell>
        <mxCell id="NMwNA50rnmMx-DE3LajB-24" style="edgeStyle=none;rounded=0;orthogonalLoop=1;jettySize=auto;html=1;exitX=0.5;exitY=1;exitDx=0;exitDy=0;strokeColor=default;align=center;verticalAlign=middle;fontFamily=Helvetica;fontSize=11;fontColor=default;labelBackgroundColor=default;endArrow=classic;entryX=0.5;entryY=0;entryDx=0;entryDy=0;" edge="1" parent="1" source="NMwNA50rnmMx-DE3LajB-14" target="NMwNA50rnmMx-DE3LajB-22">
          <mxGeometry relative="1" as="geometry" />
        </mxCell>
        <mxCell id="NMwNA50rnmMx-DE3LajB-14" value="Shader2" style="rounded=0;whiteSpace=wrap;html=1;" vertex="1" parent="1">
          <mxGeometry x="510" y="680" width="120" height="60" as="geometry" />
        </mxCell>
        <mxCell id="NMwNA50rnmMx-DE3LajB-15" value="ShaderN" style="rounded=0;whiteSpace=wrap;html=1;" vertex="1" parent="1">
          <mxGeometry x="710" y="620" width="120" height="60" as="geometry" />
        </mxCell>
        <mxCell id="NMwNA50rnmMx-DE3LajB-35" style="edgeStyle=none;rounded=0;orthogonalLoop=1;jettySize=auto;html=1;exitX=0.25;exitY=1;exitDx=0;exitDy=0;entryX=0.5;entryY=0;entryDx=0;entryDy=0;strokeColor=default;align=center;verticalAlign=middle;fontFamily=Helvetica;fontSize=11;fontColor=default;labelBackgroundColor=default;endArrow=classic;" edge="1" parent="1" source="NMwNA50rnmMx-DE3LajB-19" target="NMwNA50rnmMx-DE3LajB-32">
          <mxGeometry relative="1" as="geometry" />
        </mxCell>
        <mxCell id="NMwNA50rnmMx-DE3LajB-36" style="edgeStyle=none;rounded=0;orthogonalLoop=1;jettySize=auto;html=1;exitX=0.5;exitY=1;exitDx=0;exitDy=0;entryX=0.5;entryY=0;entryDx=0;entryDy=0;strokeColor=default;align=center;verticalAlign=middle;fontFamily=Helvetica;fontSize=11;fontColor=default;labelBackgroundColor=default;endArrow=classic;" edge="1" parent="1" source="NMwNA50rnmMx-DE3LajB-19" target="NMwNA50rnmMx-DE3LajB-33">
          <mxGeometry relative="1" as="geometry" />
        </mxCell>
        <mxCell id="NMwNA50rnmMx-DE3LajB-37" style="edgeStyle=none;rounded=0;orthogonalLoop=1;jettySize=auto;html=1;exitX=0.75;exitY=1;exitDx=0;exitDy=0;entryX=0.5;entryY=0;entryDx=0;entryDy=0;strokeColor=default;align=center;verticalAlign=middle;fontFamily=Helvetica;fontSize=11;fontColor=default;labelBackgroundColor=default;endArrow=classic;" edge="1" parent="1" source="NMwNA50rnmMx-DE3LajB-19" target="NMwNA50rnmMx-DE3LajB-34">
          <mxGeometry relative="1" as="geometry" />
        </mxCell>
        <mxCell id="NMwNA50rnmMx-DE3LajB-19" value="RenderGroups" style="rounded=0;whiteSpace=wrap;html=1;" vertex="1" parent="1">
          <mxGeometry x="930" y="920" width="120" height="60" as="geometry" />
        </mxCell>
        <mxCell id="NMwNA50rnmMx-DE3LajB-51" style="rounded=0;orthogonalLoop=1;jettySize=auto;html=1;exitX=0.25;exitY=1;exitDx=0;exitDy=0;dashed=1;strokeColor=default;align=center;verticalAlign=middle;fontFamily=Helvetica;fontSize=11;fontColor=default;labelBackgroundColor=default;endArrow=classic;dashPattern=8 8;entryX=0.25;entryY=0;entryDx=0;entryDy=0;" edge="1" parent="1" source="NMwNA50rnmMx-DE3LajB-21" target="NMwNA50rnmMx-DE3LajB-52">
          <mxGeometry relative="1" as="geometry">
            <mxPoint x="220" y="1050" as="targetPoint" />
          </mxGeometry>
        </mxCell>
        <mxCell id="NMwNA50rnmMx-DE3LajB-21" value="DataBuffer" style="rounded=0;whiteSpace=wrap;html=1;" vertex="1" parent="1">
          <mxGeometry x="310" y="810" width="120" height="60" as="geometry" />
        </mxCell>
        <mxCell id="NMwNA50rnmMx-DE3LajB-28" style="edgeStyle=none;rounded=0;orthogonalLoop=1;jettySize=auto;html=1;exitX=0.25;exitY=1;exitDx=0;exitDy=0;entryX=0.5;entryY=0;entryDx=0;entryDy=0;strokeColor=default;align=center;verticalAlign=middle;fontFamily=Helvetica;fontSize=11;fontColor=default;labelBackgroundColor=default;endArrow=classic;" edge="1" parent="1" source="NMwNA50rnmMx-DE3LajB-22" target="NMwNA50rnmMx-DE3LajB-25">
          <mxGeometry relative="1" as="geometry" />
        </mxCell>
        <mxCell id="NMwNA50rnmMx-DE3LajB-29" style="edgeStyle=none;rounded=0;orthogonalLoop=1;jettySize=auto;html=1;exitX=0.5;exitY=1;exitDx=0;exitDy=0;entryX=0.5;entryY=0;entryDx=0;entryDy=0;strokeColor=default;align=center;verticalAlign=middle;fontFamily=Helvetica;fontSize=11;fontColor=default;labelBackgroundColor=default;endArrow=classic;" edge="1" parent="1" source="NMwNA50rnmMx-DE3LajB-22" target="NMwNA50rnmMx-DE3LajB-26">
          <mxGeometry relative="1" as="geometry" />
        </mxCell>
        <mxCell id="NMwNA50rnmMx-DE3LajB-30" style="edgeStyle=none;rounded=0;orthogonalLoop=1;jettySize=auto;html=1;exitX=0.75;exitY=1;exitDx=0;exitDy=0;entryX=0.5;entryY=0;entryDx=0;entryDy=0;strokeColor=default;align=center;verticalAlign=middle;fontFamily=Helvetica;fontSize=11;fontColor=default;labelBackgroundColor=default;endArrow=classic;" edge="1" parent="1" source="NMwNA50rnmMx-DE3LajB-22" target="NMwNA50rnmMx-DE3LajB-27">
          <mxGeometry relative="1" as="geometry" />
        </mxCell>
        <mxCell id="NMwNA50rnmMx-DE3LajB-22" value="DataIndexStorage" style="rounded=0;whiteSpace=wrap;html=1;" vertex="1" parent="1">
          <mxGeometry x="510" y="850" width="120" height="60" as="geometry" />
        </mxCell>
        <mxCell id="NMwNA50rnmMx-DE3LajB-25" value="DataIndexBuffer1" style="rounded=0;whiteSpace=wrap;html=1;" vertex="1" parent="1">
          <mxGeometry x="380" y="950" width="120" height="60" as="geometry" />
        </mxCell>
        <mxCell id="NMwNA50rnmMx-DE3LajB-26" value="DataIndexBuffer2" style="rounded=0;whiteSpace=wrap;html=1;" vertex="1" parent="1">
          <mxGeometry x="510" y="990" width="120" height="60" as="geometry" />
        </mxCell>
        <mxCell id="NMwNA50rnmMx-DE3LajB-27" value="DataIndexBufferN" style="rounded=0;whiteSpace=wrap;html=1;" vertex="1" parent="1">
          <mxGeometry x="640" y="950" width="120" height="60" as="geometry" />
        </mxCell>
        <mxCell id="NMwNA50rnmMx-DE3LajB-32" value="RenderGroup1" style="rounded=0;whiteSpace=wrap;html=1;" vertex="1" parent="1">
          <mxGeometry x="820" y="1030" width="120" height="60" as="geometry" />
        </mxCell>
        <mxCell id="NMwNA50rnmMx-DE3LajB-40" style="edgeStyle=none;rounded=0;orthogonalLoop=1;jettySize=auto;html=1;exitX=0.5;exitY=1;exitDx=0;exitDy=0;entryX=0.5;entryY=0;entryDx=0;entryDy=0;strokeColor=default;align=center;verticalAlign=middle;fontFamily=Helvetica;fontSize=11;fontColor=default;labelBackgroundColor=default;endArrow=classic;" edge="1" parent="1" source="NMwNA50rnmMx-DE3LajB-33" target="NMwNA50rnmMx-DE3LajB-38">
          <mxGeometry relative="1" as="geometry" />
        </mxCell>
        <mxCell id="NMwNA50rnmMx-DE3LajB-41" style="edgeStyle=none;rounded=0;orthogonalLoop=1;jettySize=auto;html=1;exitX=0.75;exitY=1;exitDx=0;exitDy=0;entryX=0.5;entryY=0;entryDx=0;entryDy=0;strokeColor=default;align=center;verticalAlign=middle;fontFamily=Helvetica;fontSize=11;fontColor=default;labelBackgroundColor=default;endArrow=classic;" edge="1" parent="1" source="NMwNA50rnmMx-DE3LajB-33" target="NMwNA50rnmMx-DE3LajB-39">
          <mxGeometry relative="1" as="geometry" />
        </mxCell>
        <mxCell id="NMwNA50rnmMx-DE3LajB-45" style="edgeStyle=none;rounded=0;orthogonalLoop=1;jettySize=auto;html=1;exitX=0.25;exitY=1;exitDx=0;exitDy=0;entryX=0.5;entryY=0;entryDx=0;entryDy=0;strokeColor=default;align=center;verticalAlign=middle;fontFamily=Helvetica;fontSize=11;fontColor=default;labelBackgroundColor=default;endArrow=classic;" edge="1" parent="1" source="NMwNA50rnmMx-DE3LajB-33" target="NMwNA50rnmMx-DE3LajB-44">
          <mxGeometry relative="1" as="geometry" />
        </mxCell>
        <mxCell id="NMwNA50rnmMx-DE3LajB-33" value="RenderGroup2" style="rounded=0;whiteSpace=wrap;html=1;" vertex="1" parent="1">
          <mxGeometry x="930" y="1160" width="120" height="60" as="geometry" />
        </mxCell>
        <mxCell id="NMwNA50rnmMx-DE3LajB-34" value="RenderGroupN" style="rounded=0;whiteSpace=wrap;html=1;" vertex="1" parent="1">
          <mxGeometry x="1040" y="1030" width="120" height="60" as="geometry" />
        </mxCell>
        <mxCell id="NMwNA50rnmMx-DE3LajB-48" style="edgeStyle=orthogonalEdgeStyle;rounded=0;orthogonalLoop=1;jettySize=auto;html=1;exitX=0.5;exitY=1;exitDx=0;exitDy=0;entryX=0.5;entryY=0;entryDx=0;entryDy=0;dashed=1;strokeColor=default;align=center;verticalAlign=middle;fontFamily=Helvetica;fontSize=11;fontColor=default;labelBackgroundColor=default;endArrow=classic;curved=1;" edge="1" parent="1" source="NMwNA50rnmMx-DE3LajB-38" target="NMwNA50rnmMx-DE3LajB-42">
          <mxGeometry relative="1" as="geometry" />
        </mxCell>
        <mxCell id="NMwNA50rnmMx-DE3LajB-38" value="Material" style="rounded=0;whiteSpace=wrap;html=1;" vertex="1" parent="1">
          <mxGeometry x="930" y="1360" width="120" height="60" as="geometry" />
        </mxCell>
        <mxCell id="NMwNA50rnmMx-DE3LajB-49" style="edgeStyle=orthogonalEdgeStyle;rounded=0;orthogonalLoop=1;jettySize=auto;html=1;exitX=0.5;exitY=1;exitDx=0;exitDy=0;entryX=0.5;entryY=0;entryDx=0;entryDy=0;dashed=1;strokeColor=default;align=center;verticalAlign=middle;fontFamily=Helvetica;fontSize=11;fontColor=default;labelBackgroundColor=default;endArrow=classic;curved=1;" edge="1" parent="1" source="NMwNA50rnmMx-DE3LajB-39" target="NMwNA50rnmMx-DE3LajB-43">
          <mxGeometry relative="1" as="geometry" />
        </mxCell>
        <mxCell id="NMwNA50rnmMx-DE3LajB-39" value="Mesh" style="rounded=0;whiteSpace=wrap;html=1;" vertex="1" parent="1">
          <mxGeometry x="1090" y="1280" width="120" height="60" as="geometry" />
        </mxCell>
        <mxCell id="NMwNA50rnmMx-DE3LajB-42" value="Materials" style="rounded=0;whiteSpace=wrap;html=1;" vertex="1" parent="1">
          <mxGeometry x="930" y="1610" width="120" height="60" as="geometry" />
        </mxCell>
        <mxCell id="NMwNA50rnmMx-DE3LajB-43" value="Meshes" style="rounded=0;whiteSpace=wrap;html=1;" vertex="1" parent="1">
          <mxGeometry x="1200" y="1530" width="120" height="60" as="geometry" />
        </mxCell>
        <mxCell id="NMwNA50rnmMx-DE3LajB-47" style="edgeStyle=orthogonalEdgeStyle;rounded=0;orthogonalLoop=1;jettySize=auto;html=1;exitX=0;exitY=0.5;exitDx=0;exitDy=0;entryX=1;entryY=0.5;entryDx=0;entryDy=0;strokeColor=default;align=center;verticalAlign=middle;fontFamily=Helvetica;fontSize=11;fontColor=default;labelBackgroundColor=default;endArrow=classic;curved=1;dashed=1;" edge="1" parent="1" source="NMwNA50rnmMx-DE3LajB-44" target="NMwNA50rnmMx-DE3LajB-22">
          <mxGeometry relative="1" as="geometry">
            <Array as="points">
              <mxPoint x="690" y="1320" />
              <mxPoint x="690" y="1250" />
              <mxPoint x="790" y="1250" />
              <mxPoint x="790" y="880" />
            </Array>
          </mxGeometry>
        </mxCell>
        <mxCell id="NMwNA50rnmMx-DE3LajB-54" style="edgeStyle=none;rounded=0;orthogonalLoop=1;jettySize=auto;html=1;exitX=0.25;exitY=1;exitDx=0;exitDy=0;entryX=0.5;entryY=0;entryDx=0;entryDy=0;dashed=1;dashPattern=8 8;strokeColor=default;align=center;verticalAlign=middle;fontFamily=Helvetica;fontSize=11;fontColor=default;labelBackgroundColor=default;endArrow=classic;" edge="1" parent="1" source="NMwNA50rnmMx-DE3LajB-44" target="NMwNA50rnmMx-DE3LajB-53">
          <mxGeometry relative="1" as="geometry" />
        </mxCell>
        <mxCell id="NMwNA50rnmMx-DE3LajB-44" value="IndexRange" style="rounded=0;whiteSpace=wrap;html=1;" vertex="1" parent="1">
          <mxGeometry x="770" y="1290" width="120" height="60" as="geometry" />
        </mxCell>
        <mxCell id="NMwNA50rnmMx-DE3LajB-52" value="&lt;h1&gt;Queue:&lt;/h1&gt;&lt;div style=&quot;font-size: 14px;&quot;&gt;remove -&amp;gt; noop&lt;/div&gt;&lt;div style=&quot;font-size: 14px;&quot;&gt;add -&amp;gt; push&lt;/div&gt;&lt;div style=&quot;font-size: 14px;&quot;&gt;update -&amp;gt; push&lt;br&gt;&lt;/div&gt;" style="text;html=1;spacing=5;spacingTop=-20;whiteSpace=wrap;overflow=hidden;rounded=0;fontFamily=Helvetica;fontSize=11;fontColor=default;labelBackgroundColor=default;" vertex="1" parent="1">
          <mxGeometry x="110" y="1060" width="110" height="110" as="geometry" />
        </mxCell>
        <mxCell id="NMwNA50rnmMx-DE3LajB-53" value="&lt;h1&gt;Queue:&lt;/h1&gt;&lt;font style=&quot;font-size: 14px;&quot;&gt;remove, add -&amp;gt; push&lt;/font&gt;" style="text;html=1;spacing=5;spacingTop=-20;whiteSpace=wrap;overflow=hidden;rounded=0;fontFamily=Helvetica;fontSize=11;fontColor=default;labelBackgroundColor=default;" vertex="1" parent="1">
          <mxGeometry x="590" y="1420" width="140" height="60" as="geometry" />
        </mxCell>
        <mxCell id="NMwNA50rnmMx-DE3LajB-55" value="&lt;h1&gt;DataBufferQueue:&lt;/h1&gt;&lt;div style=&quot;font-size: 16px;&quot;&gt;&lt;b&gt;Remove object instance:&lt;/b&gt;&lt;/div&gt;&lt;div style=&quot;font-size: 16px;&quot;&gt;&lt;b&gt;&lt;span style=&quot;white-space: pre;&quot;&gt;&#x9;&lt;/span&gt;&lt;/b&gt;if !add.empty() -&amp;gt;&lt;/div&gt;&lt;div style=&quot;font-size: 16px;&quot;&gt;&lt;span style=&quot;white-space: pre;&quot;&gt;&#x9;&lt;/span&gt;&lt;span style=&quot;white-space: pre;&quot;&gt;&#x9;&lt;/span&gt;add new update op with remove bounds and add op data&lt;/div&gt;&lt;div style=&quot;font-size: 16px;&quot;&gt;&lt;span style=&quot;white-space: pre;&quot;&gt;&#x9;&lt;/span&gt;else&lt;br&gt;&lt;/div&gt;&lt;div style=&quot;font-size: 16px;&quot;&gt;&lt;b&gt;&lt;span style=&quot;white-space: pre;&quot;&gt;&#x9;&lt;/span&gt;&lt;/b&gt;&lt;span style=&quot;white-space: pre;&quot;&gt;&#x9;&lt;/span&gt;Push remove op into queue;&lt;/div&gt;&lt;div style=&quot;font-size: 16px;&quot;&gt;&lt;b&gt;Add object instance:&lt;/b&gt;&lt;/div&gt;&lt;div style=&quot;font-size: 16px;&quot;&gt;&lt;b&gt;&lt;span style=&quot;white-space: pre;&quot;&gt;&#x9;&lt;/span&gt;&lt;/b&gt;if !removes.empty() -&amp;gt; &lt;br&gt;&lt;/div&gt;&lt;div style=&quot;font-size: 16px;&quot;&gt;&lt;span style=&quot;white-space: pre;&quot;&gt;&#x9;&lt;/span&gt;&lt;span style=&quot;white-space: pre;&quot;&gt;&#x9;&lt;/span&gt;add new update op with remove op bounds&lt;/div&gt;&lt;div style=&quot;font-size: 16px;&quot;&gt;&lt;span style=&quot;white-space: pre;&quot;&gt;&#x9;&lt;/span&gt;else&lt;/div&gt;&lt;div style=&quot;font-size: 16px;&quot;&gt;&lt;span style=&quot;white-space: pre;&quot;&gt;&#x9;&lt;/span&gt;&lt;span style=&quot;white-space: pre;&quot;&gt;&#x9;&lt;/span&gt;Push add op into queue &lt;br&gt;&lt;/div&gt;&lt;div style=&quot;font-size: 16px;&quot;&gt;&lt;b&gt;Update object instance:&lt;/b&gt;&lt;/div&gt;&lt;div style=&quot;font-size: 16px;&quot;&gt;&lt;b&gt;&lt;span style=&quot;white-space: pre;&quot;&gt;&#x9;&lt;/span&gt;&lt;/b&gt;Push update op into queue&lt;br&gt;&lt;/div&gt;&lt;div style=&quot;font-size: 16px;&quot;&gt;&lt;b&gt;&lt;span style=&quot;white-space: pre;&quot;&gt;&#x9;&lt;/span&gt;&lt;br&gt;&lt;/b&gt;&lt;/div&gt;" style="text;html=1;spacing=5;spacingTop=-20;whiteSpace=wrap;overflow=hidden;rounded=0;fontFamily=Helvetica;fontSize=11;fontColor=default;labelBackgroundColor=default;" vertex="1" parent="1">
          <mxGeometry x="110" y="1570" width="590" height="370" as="geometry" />
        </mxCell>
      </root>
    </mxGraphModel>
  </diagram>
</mxfile>
